<?xml version="1.0" encoding="UTF-8"?>
<svg width="240" height="240" viewBox="0 0 240 240" xmlns="http://www.w3.org/2000/svg">
    <!-- Square background -->
    <rect x="20" y="20" width="200" height="200" 
          fill="#003399" stroke="#002266" stroke-width="3" rx="8"/>
    
    <!-- Connected graph network symbol -->
    <g opacity="0.5">
        <!-- Connection lines (edges) -->
        <g stroke="#FFFFFF" stroke-width="2.5" fill="none">
            <line x1="120" y1="70" x2="95" y2="90"/>
            <line x1="120" y1="70" x2="145" y2="90"/>
            <line x1="120" y1="70" x2="120" y2="105"/>
            <line x1="95" y1="90" x2="120" y2="105"/>
            <line x1="145" y1="90" x2="120" y2="105"/>
            <line x1="95" y1="90" x2="85" y2="125"/>
            <line x1="145" y1="90" x2="155" y2="125"/>
            <line x1="120" y1="105" x2="85" y2="125"/>
            <line x1="120" y1="105" x2="155" y2="125"/>
        </g>
        
        <!-- Nodes (vertices) -->
        <g fill="#FFFFFF">
            <circle cx="120" cy="70" r="5"/>
            <circle cx="95" cy="90" r="5"/>
            <circle cx="145" cy="90" r="5"/>
            <circle cx="120" cy="105" r="5"/>
            <circle cx="85" cy="125" r="5"/>
            <circle cx="155" cy="125" r="5"/>
        </g>
    </g>
    
    <!-- Text: EU (larger, centered) -->
    <text x="120" y="120" font-family="Arial, sans-serif" font-size="36" font-weight="bold"
          fill="#FFFFFF" text-anchor="middle" letter-spacing="3">EU</text>
    
    <!-- Text: Companies -->
    <text x="120" y="152" font-family="Arial, sans-serif" font-size="22" font-weight="600"
          fill="#FFFFFF" text-anchor="middle" letter-spacing="1.5">Companies</text>
    
    <!-- Text: Network -->
    <text x="120" y="180" font-family="Arial, sans-serif" font-size="22" font-weight="600"
          fill="#FFFFFF" text-anchor="middle" letter-spacing="1.5">Network</text>
</svg>